<svg xmlns="http://www.w3.org/2000/svg" viewBox="0 0 64 64"><defs><style>.cls-1{fill:#8bc4ff;}.cls-2{fill:#2e58ff;}</style></defs><title>24-7</title><g id="_24_7" data-name="24/7"><circle class="cls-1" cx="32" cy="32" r="30"/><path class="cls-2" d="M18,39H10a2,2,0,0,1-1.2-3.6l6.93-5.2a.67.67,0,0,0-.4-1.2H11a2,2,0,0,1,0-4h4.33a4.67,4.67,0,0,1,2.8,8.4L16,35h2a2,2,0,0,1,0,4Z"/><path class="cls-2" d="M31,34H27a4,4,0,0,1-4-4V27a2,2,0,0,1,4,0v3h4a2,2,0,0,1,0,4Z"/><path class="cls-2" d="M31,39a2,2,0,0,1-2-2V27a2,2,0,0,1,4,0V37A2,2,0,0,1,31,39Z"/><path class="cls-2" d="M38,39a2,2,0,0,1-1.86-2.74l4-10a2,2,0,0,1,3.72,1.48l-4,10A2,2,0,0,1,38,39Z"/><path class="cls-2" d="M50,39a2,2,0,0,1-1.86-2.74L51.05,29H48a2,2,0,0,1,0-4h6a2,2,0,0,1,1.86,2.74l-4,10A2,2,0,0,1,50,39Z"/><path class="cls-2" d="M58.77,14.51A32,32,0,0,0,12,7V5A2,2,0,0,0,8,5v7a2,2,0,0,0,2,2h7a2,2,0,0,0,0-4H14.68a28,28,0,0,1,43,33.19,2,2,0,0,0,3.66,1.62A31.83,31.83,0,0,0,58.77,14.51Z"/><path class="cls-2" d="M54,50H47a2,2,0,0,0,0,4h2.32a28,28,0,0,1-43-33.19,2,2,0,0,0-3.66-1.62A32,32,0,0,0,52,57v2a2,2,0,0,0,4,0V52A2,2,0,0,0,54,50Z"/></g></svg>