<?xml version="1.0" encoding="utf-8"?>
<!-- Generator: Adobe Illustrator 16.0.0, SVG Export Plug-In . SVG Version: 6.00 Build 0)  -->
<!DOCTYPE svg PUBLIC "-//W3C//DTD SVG 1.1//EN" "http://www.w3.org/Graphics/SVG/1.1/DTD/svg11.dtd">
<svg version="1.1" id="Layer_1" xmlns="http://www.w3.org/2000/svg" xmlns:xlink="http://www.w3.org/1999/xlink" x="0px" y="0px"
	 width="512px" height="512px" viewBox="0 0 512 512" enable-background="new 0 0 512 512" xml:space="preserve">
<g id="_x31_3._blood_x2C__transfusion_x2C__heart_x2C__medicine_x2C__hospital_x2C__treatment_x2C__disease_1_">
	<g>
		<g>
			<polygon fill="#D7E9FF" points="335.961,132.014 327.962,140.013 319.963,132.014 311.964,140.013 311.964,44.023 
				455.948,44.023 455.948,140.013 447.948,132.014 439.949,140.013 431.95,132.014 423.951,140.013 415.952,132.014 
				407.953,140.013 399.954,132.014 391.955,140.013 383.956,132.014 375.956,140.013 367.958,132.014 359.958,140.013 
				351.959,132.014 343.96,140.013 			"/>
		</g>
	</g>
	<g>
		<g>
			<polygon fill="#94C1FF" points="327.962,140.013 335.961,132.014 343.96,140.013 351.959,132.014 359.958,140.013 
				367.958,132.014 375.956,140.013 383.956,132.014 391.955,140.013 399.954,132.014 407.953,140.013 415.952,132.014 
				423.951,140.013 431.95,132.014 439.949,140.013 447.948,132.014 455.948,140.013 455.948,236.002 431.95,260 335.961,260 
				311.964,236.002 311.964,140.013 319.963,132.014 			"/>
		</g>
	</g>
	<g>
		<g>
			<g>
				<polygon fill="#FFFFFF" points="319.963,44.023 311.964,44.023 311.964,140.013 319.963,132.014 				"/>
			</g>
		</g>
	</g>
	<g>
		<g>
			<g>
				<polygon fill="#94C1FF" points="447.948,44.023 455.948,44.023 455.948,140.013 447.948,132.014 				"/>
			</g>
		</g>
	</g>
	<g>
		<g>
			<path fill="#D7E9FF" d="M295.966,20.026h47.994c0,0,15.115-15.999,39.996-15.999c24.88,0,39.995,15.999,39.995,15.999h47.995
				c4.397,0,7.999,3.601,7.999,7.999v247.973c0,4.397-3.602,7.999-7.999,7.999h-79.991v15.998h-15.999v-15.998h-79.99
				c-4.398,0-8-3.602-8-7.999V28.025C287.966,23.627,291.567,20.026,295.966,20.026z M311.964,44.023v95.989v95.989L335.961,260
				h95.989l23.998-23.998v-95.989V44.023H311.964z"/>
		</g>
	</g>
	<g>
		<g>
			<g>
				<path fill="#94C1FF" d="M471.946,275.998V28.025c0-4.398-3.602-7.999-7.999-7.999h7.999c4.397,0,7.999,3.601,7.999,7.999
					v247.973c0,4.397-3.602,7.999-7.999,7.999h-7.999C468.345,283.997,471.946,280.396,471.946,275.998z"/>
			</g>
		</g>
	</g>
	<g>
		<g>
			<path fill="#94C1FF" d="M391.955,307.994c0,83.991-67.993,151.983-151.983,151.983h-8v-15.998h8
				c75.194,0,135.984-60.79,135.984-135.985v-7.999h15.999V307.994z"/>
		</g>
	</g>
	<g>
		<g>
			<path fill="#94C1FF" d="M39.994,395.985l7.999-8l7.999,8l7.999-8l7.999,8l8-8l7.999,8l8-8l7.999,8l7.999-8l7.999,8l7.999-8
				l7.999,8l7.999-8l8,8l7.999-8l8,8l7.999-8l7.999,8l7.999-8l7.999,8l7.999-8l7.999,8l8-8l7.999,8l8-8l7.999,8l1.679,0.797
				c-3.117,6.726-7.437,12.881-12.881,18.403l-20.795,20.795l-7.999,7.999h23.998v15.998h-39.996l-7.999,8l-39.996,39.995
				l-92.786-92.787c-5.445-5.522-9.765-11.764-12.882-18.403L39.994,395.985z"/>
		</g>
	</g>
	<g>
		<g>
			<path fill="#D7E9FF" d="M250.799,397.157l-8-8c-1.562-1.562-4.093-1.562-5.655,0l-5.171,5.172l-5.171-5.172
				c-1.562-1.562-4.093-1.562-5.655,0l-5.172,5.172l-5.171-5.172c-1.562-1.562-4.094-1.562-5.656,0l-5.171,5.172l-5.171-5.172
				c-1.562-1.562-4.094-1.562-5.656,0l-5.171,5.172l-5.171-5.172c-1.562-1.562-4.093-1.562-5.656,0l-5.171,5.172l-5.172-5.172
				c-1.562-1.562-4.093-1.562-5.655,0l-5.171,5.172l-5.171-5.172c-1.562-1.562-4.093-1.562-5.655,0l-5.172,5.172l-5.171-5.172
				c-1.562-1.562-4.094-1.562-5.656,0l-5.171,5.172l-5.171-5.172c-1.562-1.562-4.093-1.562-5.656,0l-5.171,5.172l-5.171-5.172
				c-1.562-1.562-4.093-1.562-5.656,0l-5.171,5.172l-5.171-5.172c-1.562-1.562-4.093-1.562-5.655,0l-5.172,5.172l-5.171-5.172
				c-1.562-1.562-4.093-1.562-5.656,0l-5.171,5.172l-5.171-5.172c-1.562-1.562-4.094-1.562-5.656,0l-7.999,8
				c-1.562,1.562-1.562,4.093,0,5.655c0.781,0.781,1.805,1.171,2.828,1.171s2.047-0.39,2.828-1.171l5.171-5.172l5.171,5.172
				c0.781,0.781,1.804,1.171,2.828,1.171s2.047-0.39,2.828-1.171l5.171-5.172l5.172,5.172c0.781,0.781,1.804,1.171,2.827,1.171
				c1.023,0,2.047-0.39,2.828-1.171l5.171-5.172l5.171,5.172c0.781,0.781,1.805,1.171,2.828,1.171c1.023,0,2.046-0.39,2.828-1.171
				l5.172-5.172l5.171,5.172c0.781,0.781,1.805,1.171,2.828,1.171s2.046-0.39,2.828-1.171l5.171-5.172l5.171,5.172
				c0.781,0.781,1.805,1.171,2.828,1.171s2.047-0.39,2.828-1.171l5.171-5.172l5.171,5.172c0.781,0.781,1.804,1.171,2.828,1.171
				s2.047-0.39,2.828-1.171l5.171-5.172l5.172,5.172c0.781,0.781,1.804,1.171,2.828,1.171c1.023,0,2.046-0.39,2.828-1.171
				l5.171-5.172l5.171,5.172c0.781,0.781,1.805,1.171,2.828,1.171c1.023,0,2.046-0.39,2.827-1.171l5.172-5.172l5.171,5.172
				c0.781,0.781,1.805,1.171,2.828,1.171s2.047-0.39,2.828-1.171l5.171-5.172l5.171,5.172c0.781,0.781,1.804,1.171,2.828,1.171
				s2.047-0.39,2.828-1.171l5.171-5.172l5.172,5.172c0.781,0.781,1.804,1.171,2.827,1.171c1.023,0,2.047-0.39,2.828-1.171
				l5.171-5.172l5.171,5.172c0.781,0.781,1.805,1.171,2.828,1.171c1.023,0,2.046-0.39,2.828-1.171l5.172-5.172l5.171,5.172
				c0.781,0.781,1.805,1.171,2.828,1.171s2.046-0.39,2.828-1.171C252.361,401.25,252.361,398.719,250.799,397.157z"/>
		</g>
	</g>
	<g>
		<g>
			<path fill="#D7E9FF" d="M58.085,403.297c-0.648,0.414-1.352,0.687-2.094,0.687c-1.023,0-2.046-0.39-2.828-1.171l-5.171-5.172
				l-5.171,5.172c-0.218,0.219-0.484,0.328-0.734,0.484c2.593,4.194,5.507,8.233,9.108,11.889l92.786,92.787l8-7.999l-84.788-84.788
				C63.592,411.53,60.679,407.491,58.085,403.297z"/>
		</g>
	</g>
	<g>
		<g>
			<path fill="#D7E9FF" d="M458.775,141.185l-7.999-7.999c-1.562-1.562-4.094-1.562-5.655,0l-5.172,5.171l-5.171-5.171
				c-1.562-1.562-4.094-1.562-5.656,0l-5.171,5.171l-5.171-5.171c-1.562-1.562-4.094-1.562-5.656,0l-5.171,5.171l-5.171-5.171
				c-1.562-1.562-4.094-1.562-5.656,0l-5.171,5.171l-5.172-5.171c-1.562-1.562-4.093-1.562-5.655,0l-5.172,5.171l-5.171-5.171
				c-1.562-1.562-4.093-1.562-5.655,0l-5.172,5.171l-5.171-5.171c-1.562-1.562-4.094-1.562-5.655,0l-5.172,5.171l-5.171-5.171
				c-1.562-1.562-4.094-1.562-5.656,0l-5.171,5.171l-5.172-5.171c-1.562-1.562-4.093-1.562-5.655,0l-7.999,7.999
				c-1.562,1.562-1.562,4.093,0,5.655c0.781,0.781,1.805,1.172,2.828,1.172s2.047-0.391,2.827-1.172l5.172-5.171l5.171,5.171
				c0.781,0.781,1.805,1.172,2.828,1.172s2.047-0.391,2.828-1.172l5.171-5.171l5.171,5.171c0.781,0.781,1.805,1.172,2.828,1.172
				s2.047-0.391,2.828-1.172l5.171-5.171l5.171,5.171c0.781,0.781,1.805,1.172,2.828,1.172s2.047-0.391,2.828-1.172l5.172-5.171
				l5.171,5.171c0.781,0.781,1.804,1.172,2.827,1.172s2.047-0.391,2.828-1.172l5.172-5.171l5.171,5.171
				c0.781,0.781,1.805,1.172,2.828,1.172c1.022,0,2.046-0.391,2.827-1.172l5.172-5.171l5.171,5.171
				c0.781,0.781,1.805,1.172,2.828,1.172s2.047-0.391,2.827-1.172l5.172-5.171l5.172,5.171c0.78,0.781,1.804,1.172,2.827,1.172
				s2.047-0.391,2.828-1.172l5.171-5.171l5.172,5.171c0.781,0.781,1.805,1.172,2.827,1.172c1.023,0,2.047-0.391,2.828-1.172
				l5.171-5.171l5.172,5.171c0.781,0.781,1.805,1.172,2.828,1.172s2.046-0.391,2.827-1.172
				C460.338,145.278,460.338,142.747,458.775,141.185z"/>
		</g>
	</g>
	<g>
		<g>
			<path fill="#D7E9FF" d="M319.963,141.669l-5.172,5.171c-0.78,0.781-1.804,1.172-2.827,1.172v87.99L335.961,260h9.835
				l-25.833-27.497V141.669z"/>
		</g>
	</g>
	<g>
		<g>
			<path fill="#5C9EFF" d="M447.948,141.669l5.172,5.171c0.781,0.781,1.805,1.172,2.828,1.172v87.99L431.95,260h-9.835
				l25.833-27.497V141.669z"/>
		</g>
	</g>
	<g>
		<g>
			<path fill="#D7E9FF" d="M47.993,387.985l-7.999,8l-1.68,0.797c-11.522-24.318-7.28-54.229,12.882-74.391
				c25.591-25.6,67.109-25.6,92.786,0c25.599-25.6,67.11-25.6,92.787,0c20.162,20.162,24.403,50.072,12.881,74.391l-1.679-0.797
				l-7.999-8l-8,8l-7.999-8l-8,8l-7.999-8l-7.999,8l-7.999-8l-7.999,8l-7.999-8l-7.999,8l-8-8l-7.999,8l-8-8l-7.999,8l-7.999-8
				l-7.999,8l-7.999-8l-7.999,8l-7.999-8l-8,8l-7.999-8l-8,8l-7.999-8l-7.999,8L47.993,387.985z"/>
		</g>
	</g>
	<g>
		<g>
			<g>
				<path fill="#FFFFFF" d="M67.194,322.392c10.757-10.765,24.333-16.936,38.363-18.654c-19.35-2.359-39.527,3.819-54.361,18.654
					c-20.162,20.162-24.404,50.072-12.882,74.391l1.68-0.797l7.999-8l4.781,4.781C43.47,369.229,48.11,341.476,67.194,322.392z"/>
			</g>
		</g>
	</g>
	<g>
		<g>
			<g>
				<path fill="#94C1FF" d="M220.779,322.392c-10.757-10.765-24.333-16.936-38.363-18.654c19.35-2.359,39.527,3.819,54.361,18.654
					c20.162,20.162,24.403,50.072,12.881,74.391l-1.679-0.797l-7.999-8l-4.781,4.781
					C244.502,369.229,239.863,341.476,220.779,322.392z"/>
			</g>
		</g>
	</g>
	<g>
		<g>
			<polygon fill="#5C9EFF" points="179.986,455.979 135.991,499.974 143.99,507.973 195.984,455.979 			"/>
		</g>
	</g>
	<g>
		<g>
			<path fill="#5C9EFF" d="M245.151,402.812l-5.171-5.172l-5.172,5.172c-0.781,0.781-1.804,1.171-2.828,1.171
				c-0.742,0-1.445-0.272-2.093-0.687c-2.594,4.194-5.507,8.233-9.108,11.889l-32.793,32.794h15.999l32.793-32.794
				c3.601-3.655,6.515-7.694,9.108-11.889C245.635,403.141,245.37,403.031,245.151,402.812z"/>
		</g>
	</g>
	<g id="_x31_3._blood_x2C__transfusion_x2C__heart_x2C__medicine_x2C__hospital_x2C__treatment_x2C__disease">
		<g>
			<g>
				<path fill="#116FFF" d="M384.206,24.025c-2.211,0-4.039-1.789-4.039-4s1.75-4,3.953-4h0.086c2.202,0,3.999,1.789,3.999,4
					S386.408,24.025,384.206,24.025z"/>
			</g>
		</g>
		<g>
			<g>
				<path fill="#116FFF" d="M143.998,511.972c-1.062,0-2.078-0.421-2.827-1.171L48.383,417.99
					c-27.114-27.138-27.114-71.289,0-98.419c26.2-26.208,68.309-27.099,95.614-2.672c27.294-24.427,69.387-23.528,95.6,2.672
					c27.122,27.13,27.122,71.281,0,98.419l-20.811,20.826c-1.562,1.562-4.093,1.562-5.655,0c-1.562-1.562-1.562-4.094,0-5.656
					l20.81-20.825c24.005-24.021,24.005-63.095,0-87.107c-24.021-24.006-63.103-24.021-87.115,0c-1.562,1.562-4.093,1.562-5.655,0
					c-24.029-23.998-63.118-24.014-87.132,0c-23.997,24.013-23.997,63.086,0,87.107l89.959,89.982l37.16-37.168
					c1.562-1.562,4.094-1.562,5.656,0c1.562,1.562,1.562,4.093,0,5.655l-39.988,39.996
					C146.076,511.551,145.06,511.972,143.998,511.972z"/>
			</g>
		</g>
		<g>
			<g>
				<path fill="#116FFF" d="M287.974,32.024c-2.211,0-3.999-1.789-3.999-4c0-6.617,5.382-11.999,11.999-11.999
					c2.21,0,3.999,1.789,3.999,4s-1.789,4-3.999,4c-2.203,0-4,1.793-4,4C291.974,30.235,290.185,32.024,287.974,32.024z"/>
			</g>
		</g>
		<g>
			<g>
				<path fill="#116FFF" d="M295.974,287.997c-6.617,0-11.999-5.383-11.999-11.999c0-2.211,1.788-4,3.999-4s4,1.789,4,4
					c0,2.203,1.797,3.999,4,3.999c2.21,0,3.999,1.789,3.999,4S298.184,287.997,295.974,287.997z"/>
			</g>
		</g>
		<g>
			<g>
				<path fill="#116FFF" d="M471.954,287.997c-2.211,0-4-1.789-4-4s1.789-4,4-4c2.203,0,3.999-1.796,3.999-3.999
					c0-2.211,1.789-4,4-4s3.999,1.789,3.999,4C483.952,282.614,478.57,287.997,471.954,287.997z"/>
			</g>
		</g>
		<g>
			<g>
				<path fill="#116FFF" d="M479.953,32.024c-2.211,0-4-1.789-4-4c0-2.207-1.796-4-3.999-4c-2.211,0-4-1.789-4-4s1.789-4,4-4
					c6.616,0,11.998,5.382,11.998,11.999C483.952,30.235,482.164,32.024,479.953,32.024z"/>
			</g>
		</g>
		<g>
			<g>
				<path fill="#116FFF" d="M343.968,24.025h-47.994c-2.211,0-4-1.789-4-4s1.789-4,4-4h47.994c2.211,0,4,1.789,4,4
					S346.179,24.025,343.968,24.025z"/>
			</g>
		</g>
		<g>
			<g>
				<path fill="#116FFF" d="M471.954,24.025h-47.995c-2.21,0-3.999-1.789-3.999-4s1.789-4,3.999-4h47.995
					c2.211,0,3.999,1.789,3.999,4S474.165,24.025,471.954,24.025z"/>
			</g>
		</g>
		<g>
			<g>
				<path fill="#116FFF" d="M343.968,24.025c-0.984,0-1.977-0.363-2.75-1.09c-1.602-1.52-1.672-4.05-0.156-5.655
					c0.664-0.703,16.592-17.252,42.902-17.252c26.31,0,42.237,16.549,42.901,17.252c1.516,1.601,1.445,4.124-0.156,5.644
					c-1.602,1.516-4.125,1.453-5.647-0.145c-0.141-0.148-14.343-14.752-37.098-14.752c-22.896,0-36.949,14.596-37.09,14.744
					C346.093,23.604,345.03,24.025,343.968,24.025z"/>
			</g>
		</g>
		<g>
			<g>
				<path fill="#116FFF" d="M287.974,279.997c-2.211,0-3.999-1.788-3.999-3.999V28.025c0-2.21,1.788-4,3.999-4s4,1.789,4,4v247.973
					C291.974,278.209,290.185,279.997,287.974,279.997z"/>
			</g>
		</g>
		<g>
			<g>
				<path fill="#116FFF" d="M367.966,288.005h-71.992c-2.211,0-4-1.789-4-4s1.789-4,4-4h71.992c2.21,0,3.999,1.789,3.999,4
					S370.176,288.005,367.966,288.005z"/>
			</g>
		</g>
		<g>
			<g>
				<path fill="#116FFF" d="M471.954,288.005h-71.992c-2.211,0-4-1.789-4-4s1.789-4,4-4h71.992c2.211,0,3.999,1.789,3.999,4
					S474.165,288.005,471.954,288.005z"/>
			</g>
		</g>
		<g>
			<g>
				<path fill="#116FFF" d="M479.953,279.997c-2.211,0-4-1.788-4-3.999V28.025c0-2.21,1.789-4,4-4s3.999,1.789,3.999,4v247.973
					C483.952,278.209,482.164,279.997,479.953,279.997z"/>
			</g>
		</g>
		<g>
			<g>
				<path fill="#116FFF" d="M455.956,48.022H311.972c-2.211,0-4-1.789-4-3.999c0-2.211,1.789-4,4-4h143.984
					c2.21,0,3.999,1.789,3.999,4C459.955,46.234,458.166,48.022,455.956,48.022z"/>
			</g>
		</g>
		<g>
			<g>
				<path fill="#116FFF" d="M311.972,240.002c-2.211,0-4-1.789-4-4V44.023c0-2.211,1.789-4,4-4c2.21,0,3.999,1.789,3.999,4v191.979
					C315.971,238.213,314.182,240.002,311.972,240.002z"/>
			</g>
		</g>
		<g>
			<g>
				<path fill="#116FFF" d="M455.956,240.002c-2.211,0-4-1.789-4-4V44.023c0-2.211,1.789-4,4-4c2.21,0,3.999,1.789,3.999,4v191.979
					C459.955,238.213,458.166,240.002,455.956,240.002z"/>
			</g>
		</g>
		<g>
			<g>
				<path fill="#116FFF" d="M335.969,263.999c-1.023,0-2.047-0.391-2.828-1.172l-23.997-23.997c-1.562-1.562-1.562-4.093,0-5.655
					c1.562-1.562,4.094-1.562,5.655,0l23.998,23.997c1.562,1.562,1.562,4.093,0,5.655
					C338.016,263.608,336.992,263.999,335.969,263.999z"/>
			</g>
		</g>
		<g>
			<g>
				<path fill="#116FFF" d="M431.958,263.999c-1.023,0-2.047-0.391-2.828-1.172c-1.562-1.562-1.562-4.093,0-5.655l23.998-23.997
					c1.562-1.562,4.094-1.562,5.655,0c1.562,1.562,1.562,4.093,0,5.655l-23.997,23.997
					C434.005,263.608,432.981,263.999,431.958,263.999z"/>
			</g>
		</g>
		<g>
			<g>
				<path fill="#116FFF" d="M431.958,263.999h-95.989c-2.211,0-3.999-1.789-3.999-3.999c0-2.211,1.788-4,3.999-4h95.989
					c2.211,0,4,1.789,4,4C435.958,262.21,434.169,263.999,431.958,263.999z"/>
			</g>
		</g>
		<g>
			<g>
				<g>
					<path fill="#116FFF" d="M327.97,144.012c-1.023,0-2.047-0.39-2.828-1.171c-1.562-1.562-1.562-4.094,0-5.656l7.999-7.999
						c1.562-1.562,4.094-1.562,5.656,0c1.562,1.562,1.562,4.094,0,5.656l-7.999,8C330.017,143.622,328.993,144.012,327.97,144.012z"
						/>
				</g>
			</g>
			<g>
				<g>
					<path fill="#116FFF" d="M343.968,144.012c-1.023,0-2.047-0.39-2.828-1.171l-7.999-8c-1.562-1.562-1.562-4.093,0-5.656
						c1.562-1.562,4.094-1.562,5.656,0l7.999,7.999c1.562,1.562,1.562,4.094,0,5.656
						C346.015,143.622,344.991,144.012,343.968,144.012z"/>
				</g>
			</g>
			<g>
				<g>
					<path fill="#116FFF" d="M343.968,144.012c-1.023,0-2.047-0.39-2.828-1.171c-1.562-1.562-1.562-4.094,0-5.656l8-7.999
						c1.562-1.562,4.093-1.562,5.655,0c1.562,1.562,1.562,4.094,0,5.656l-7.999,8C346.015,143.622,344.991,144.012,343.968,144.012z
						"/>
				</g>
			</g>
			<g>
				<g>
					<path fill="#116FFF" d="M359.966,144.012c-1.023,0-2.047-0.39-2.828-1.171l-7.998-8c-1.562-1.562-1.562-4.093,0-5.656
						c1.562-1.562,4.093-1.562,5.655,0l7.999,7.999c1.562,1.562,1.562,4.094,0,5.656
						C362.013,143.622,360.989,144.012,359.966,144.012z"/>
				</g>
			</g>
			<g>
				<g>
					<path fill="#116FFF" d="M359.966,144.012c-1.023,0-2.047-0.39-2.828-1.171c-1.562-1.562-1.562-4.094,0-5.656l8-7.999
						c1.562-1.562,4.093-1.562,5.655,0c1.562,1.562,1.562,4.094,0,5.656l-7.999,8C362.013,143.622,360.989,144.012,359.966,144.012z
						"/>
				</g>
			</g>
			<g>
				<g>
					<path fill="#116FFF" d="M375.964,144.012c-1.023,0-2.046-0.39-2.827-1.171l-7.999-8c-1.562-1.562-1.562-4.093,0-5.656
						c1.562-1.562,4.093-1.562,5.655,0l7.999,7.999c1.562,1.562,1.562,4.094,0,5.656
						C378.011,143.622,376.987,144.012,375.964,144.012z"/>
				</g>
			</g>
			<g>
				<g>
					<path fill="#116FFF" d="M375.964,144.012c-1.023,0-2.046-0.39-2.827-1.171c-1.562-1.562-1.562-4.094,0-5.656l7.999-7.999
						c1.562-1.562,4.094-1.562,5.655,0c1.562,1.562,1.562,4.094,0,5.656l-7.999,8C378.011,143.622,376.987,144.012,375.964,144.012z
						"/>
				</g>
			</g>
			<g>
				<g>
					<path fill="#116FFF" d="M391.963,144.012c-1.023,0-2.047-0.39-2.828-1.171l-7.999-8c-1.562-1.562-1.562-4.093,0-5.656
						c1.562-1.562,4.094-1.562,5.655,0l7.999,7.999c1.562,1.562,1.562,4.094,0,5.656
						C394.009,143.622,392.985,144.012,391.963,144.012z"/>
				</g>
			</g>
			<g>
				<g>
					<path fill="#116FFF" d="M391.963,144.012c-1.023,0-2.047-0.39-2.828-1.171c-1.562-1.562-1.562-4.094,0-5.656l7.999-7.999
						c1.562-1.562,4.094-1.562,5.656,0c1.562,1.562,1.562,4.094,0,5.656l-8,8C394.009,143.622,392.985,144.012,391.963,144.012z"/>
				</g>
			</g>
			<g>
				<g>
					<path fill="#116FFF" d="M407.961,144.012c-1.023,0-2.047-0.39-2.828-1.171l-7.999-8c-1.562-1.562-1.562-4.093,0-5.656
						c1.562-1.562,4.094-1.562,5.656,0l7.998,7.999c1.562,1.562,1.562,4.094,0,5.656
						C410.008,143.622,408.984,144.012,407.961,144.012z"/>
				</g>
			</g>
			<g>
				<g>
					<path fill="#116FFF" d="M407.961,144.012c-1.023,0-2.047-0.39-2.828-1.171c-1.562-1.562-1.562-4.094,0-5.656l7.999-7.999
						c1.562-1.562,4.094-1.562,5.656,0c1.562,1.562,1.562,4.094,0,5.656l-8,8C410.008,143.622,408.984,144.012,407.961,144.012z"/>
				</g>
			</g>
			<g>
				<g>
					<path fill="#116FFF" d="M423.959,144.012c-1.023,0-2.047-0.39-2.827-1.171l-8-8c-1.562-1.562-1.562-4.093,0-5.656
						c1.562-1.562,4.094-1.562,5.656,0l7.999,7.999c1.562,1.562,1.562,4.094,0,5.656
						C426.006,143.622,424.982,144.012,423.959,144.012z"/>
				</g>
			</g>
			<g>
				<g>
					<path fill="#116FFF" d="M423.959,144.012c-1.023,0-2.047-0.39-2.827-1.171c-1.562-1.562-1.562-4.094,0-5.656l7.998-7.999
						c1.562-1.562,4.094-1.562,5.656,0c1.562,1.562,1.562,4.094,0,5.656l-7.999,8C426.006,143.622,424.982,144.012,423.959,144.012z
						"/>
				</g>
			</g>
			<g>
				<g>
					<path fill="#116FFF" d="M439.957,144.012c-1.022,0-2.046-0.39-2.827-1.171l-8-8c-1.562-1.562-1.562-4.093,0-5.656
						c1.562-1.562,4.094-1.562,5.656,0l7.999,7.999c1.562,1.562,1.562,4.094,0,5.656
						C442.004,143.622,440.98,144.012,439.957,144.012z"/>
				</g>
			</g>
			<g>
				<g>
					<path fill="#116FFF" d="M439.957,144.012c-1.022,0-2.046-0.39-2.827-1.171c-1.562-1.562-1.562-4.094,0-5.656l7.999-7.999
						c1.562-1.562,4.093-1.562,5.655,0c1.562,1.562,1.562,4.094,0,5.656l-7.999,8C442.004,143.622,440.98,144.012,439.957,144.012z"
						/>
				</g>
			</g>
			<g>
				<g>
					<path fill="#116FFF" d="M455.956,144.012c-1.023,0-2.047-0.39-2.828-1.171l-7.999-8c-1.562-1.562-1.562-4.093,0-5.656
						c1.562-1.562,4.093-1.562,5.655,0l7.999,7.999c1.562,1.562,1.562,4.094,0,5.656
						C458.002,143.622,456.979,144.012,455.956,144.012z"/>
				</g>
			</g>
			<g>
				<g>
					<path fill="#116FFF" d="M311.972,144.012c-1.023,0-2.047-0.39-2.828-1.171c-1.562-1.562-1.562-4.094,0-5.656l7.999-7.999
						c1.562-1.562,4.093-1.562,5.655,0c1.562,1.562,1.562,4.094,0,5.656l-7.999,8C314.019,143.622,312.995,144.012,311.972,144.012z
						"/>
				</g>
			</g>
			<g>
				<g>
					<path fill="#116FFF" d="M327.97,144.012c-1.023,0-2.047-0.39-2.828-1.171l-7.999-8c-1.562-1.562-1.562-4.093,0-5.656
						c1.562-1.562,4.093-1.562,5.655,0l8,7.999c1.562,1.562,1.562,4.094,0,5.656C330.017,143.622,328.993,144.012,327.97,144.012z"
						/>
				</g>
			</g>
		</g>
		<g>
			<g>
				<g>
					<path fill="#116FFF" d="M56,399.984c-1.023,0-2.046-0.391-2.828-1.172c-1.562-1.562-1.562-4.093,0-5.655l7.999-7.999
						c1.562-1.562,4.093-1.562,5.656,0c1.562,1.562,1.562,4.093,0,5.655l-7.999,7.999C58.046,399.594,57.023,399.984,56,399.984z"/>
				</g>
			</g>
			<g>
				<g>
					<path fill="#116FFF" d="M71.998,399.984c-1.023,0-2.046-0.391-2.827-1.172l-8-7.999c-1.562-1.562-1.562-4.094,0-5.655
						c1.562-1.562,4.093-1.562,5.656,0l7.999,7.999c1.562,1.562,1.562,4.093,0,5.655C74.044,399.594,73.021,399.984,71.998,399.984z
						"/>
				</g>
			</g>
			<g>
				<g>
					<path fill="#116FFF" d="M40.001,399.984c-1.023,0-2.047-0.391-2.828-1.172c-1.562-1.562-1.562-4.093,0-5.655l7.999-7.999
						c1.562-1.562,4.094-1.562,5.656,0c1.562,1.562,1.562,4.093,0,5.655l-8,7.999C42.048,399.594,41.025,399.984,40.001,399.984z"/>
				</g>
			</g>
			<g>
				<g>
					<path fill="#116FFF" d="M56,399.984c-1.023,0-2.046-0.391-2.828-1.172l-8-7.999c-1.562-1.562-1.562-4.094,0-5.655
						c1.562-1.562,4.094-1.562,5.656,0l7.999,7.999c1.562,1.562,1.562,4.093,0,5.655C58.046,399.594,57.023,399.984,56,399.984z"/>
				</g>
			</g>
			<g>
				<g>
					<path fill="#116FFF" d="M71.998,399.984c-1.023,0-2.046-0.391-2.827-1.172c-1.562-1.562-1.562-4.093,0-5.655l7.999-7.999
						c1.562-1.562,4.093-1.562,5.655,0c1.562,1.562,1.562,4.093,0,5.655l-7.999,7.999C74.044,399.594,73.021,399.984,71.998,399.984
						z"/>
				</g>
			</g>
			<g>
				<g>
					<path fill="#116FFF" d="M87.996,399.984c-1.023,0-2.046-0.391-2.828-1.172l-7.999-7.999c-1.562-1.562-1.562-4.094,0-5.655
						c1.562-1.562,4.093-1.562,5.655,0l7.999,7.999c1.562,1.562,1.562,4.093,0,5.655C90.042,399.594,89.02,399.984,87.996,399.984z"
						/>
				</g>
			</g>
			<g>
				<g>
					<path fill="#116FFF" d="M87.996,399.984c-1.023,0-2.046-0.391-2.828-1.172c-1.562-1.562-1.562-4.093,0-5.655l7.999-7.999
						c1.562-1.562,4.093-1.562,5.656,0c1.562,1.562,1.562,4.093,0,5.655l-8,7.999C90.042,399.594,89.02,399.984,87.996,399.984z"/>
				</g>
			</g>
			<g>
				<g>
					<path fill="#116FFF" d="M103.995,399.984c-1.023,0-2.047-0.391-2.828-1.172l-7.999-7.999c-1.562-1.562-1.562-4.094,0-5.655
						c1.562-1.562,4.093-1.562,5.656,0l7.999,7.999c1.562,1.562,1.562,4.093,0,5.655
						C106.041,399.594,105.018,399.984,103.995,399.984z"/>
				</g>
			</g>
			<g>
				<g>
					<path fill="#116FFF" d="M103.995,399.984c-1.023,0-2.047-0.391-2.828-1.172c-1.562-1.562-1.562-4.093,0-5.655l7.999-7.999
						c1.562-1.562,4.094-1.562,5.656,0c1.562,1.562,1.562,4.093,0,5.655l-7.999,7.999
						C106.041,399.594,105.018,399.984,103.995,399.984z"/>
				</g>
			</g>
			<g>
				<g>
					<path fill="#116FFF" d="M119.993,399.984c-1.023,0-2.047-0.391-2.828-1.172l-7.999-7.999c-1.562-1.562-1.562-4.094,0-5.655
						c1.562-1.562,4.094-1.562,5.656,0l8,7.999c1.562,1.562,1.562,4.093,0,5.655C122.04,399.594,121.016,399.984,119.993,399.984z"
						/>
				</g>
			</g>
			<g>
				<g>
					<path fill="#116FFF" d="M119.993,399.984c-1.023,0-2.047-0.391-2.828-1.172c-1.562-1.562-1.562-4.093,0-5.655l8-7.999
						c1.562-1.562,4.093-1.562,5.656,0c1.562,1.562,1.562,4.093,0,5.655l-7.999,7.999
						C122.04,399.594,121.016,399.984,119.993,399.984z"/>
				</g>
			</g>
			<g>
				<g>
					<path fill="#116FFF" d="M135.991,399.984c-1.023,0-2.046-0.391-2.828-1.172l-7.999-7.999c-1.562-1.562-1.562-4.094,0-5.655
						c1.562-1.562,4.093-1.562,5.656,0l7.999,7.999c1.562,1.562,1.562,4.093,0,5.655
						C138.038,399.594,137.014,399.984,135.991,399.984z"/>
				</g>
			</g>
			<g>
				<g>
					<path fill="#116FFF" d="M135.991,399.984c-1.023,0-2.046-0.391-2.828-1.172c-1.562-1.562-1.562-4.093,0-5.655l8-7.999
						c1.562-1.562,4.093-1.562,5.655,0c1.562,1.562,1.562,4.093,0,5.655l-7.999,7.999
						C138.038,399.594,137.014,399.984,135.991,399.984z"/>
				</g>
			</g>
			<g>
				<g>
					<path fill="#116FFF" d="M151.989,399.984c-1.023,0-2.046-0.391-2.828-1.172l-7.999-7.999c-1.562-1.562-1.562-4.094,0-5.655
						c1.562-1.562,4.093-1.562,5.655,0l7.999,7.999c1.562,1.562,1.562,4.093,0,5.655
						C154.036,399.594,153.012,399.984,151.989,399.984z"/>
				</g>
			</g>
			<g>
				<g>
					<path fill="#116FFF" d="M151.989,399.984c-1.023,0-2.046-0.391-2.828-1.172c-1.562-1.562-1.562-4.093,0-5.655l7.999-7.999
						c1.562-1.562,4.093-1.562,5.655,0c1.562,1.562,1.562,4.093,0,5.655l-7.999,7.999
						C154.036,399.594,153.012,399.984,151.989,399.984z"/>
				</g>
			</g>
			<g>
				<g>
					<path fill="#116FFF" d="M167.988,399.984c-1.023,0-2.047-0.391-2.828-1.172l-7.999-7.999c-1.562-1.562-1.562-4.094,0-5.655
						c1.562-1.562,4.093-1.562,5.655,0l7.999,7.999c1.562,1.562,1.562,4.093,0,5.655
						C170.034,399.594,169.011,399.984,167.988,399.984z"/>
				</g>
			</g>
			<g>
				<g>
					<path fill="#116FFF" d="M167.988,399.984c-1.023,0-2.047-0.391-2.828-1.172c-1.562-1.562-1.562-4.093,0-5.655l7.999-7.999
						c1.562-1.562,4.094-1.562,5.656,0c1.562,1.562,1.562,4.093,0,5.655l-8,7.999C170.034,399.594,169.011,399.984,167.988,399.984z
						"/>
				</g>
			</g>
			<g>
				<g>
					<path fill="#116FFF" d="M183.986,399.984c-1.023,0-2.047-0.391-2.828-1.172l-7.999-7.999c-1.562-1.562-1.562-4.094,0-5.655
						c1.562-1.562,4.094-1.562,5.656,0l7.999,7.999c1.562,1.562,1.562,4.093,0,5.655
						C186.033,399.594,185.009,399.984,183.986,399.984z"/>
				</g>
			</g>
			<g>
				<g>
					<path fill="#116FFF" d="M183.986,399.984c-1.023,0-2.047-0.391-2.828-1.172c-1.562-1.562-1.562-4.093,0-5.655l7.999-7.999
						c1.562-1.562,4.094-1.562,5.656,0c1.562,1.562,1.562,4.093,0,5.655l-8,7.999C186.033,399.594,185.009,399.984,183.986,399.984z
						"/>
				</g>
			</g>
			<g>
				<g>
					<path fill="#116FFF" d="M199.984,399.984c-1.023,0-2.047-0.391-2.828-1.172l-8-7.999c-1.562-1.562-1.562-4.094,0-5.655
						c1.562-1.562,4.094-1.562,5.656,0l7.999,7.999c1.562,1.562,1.562,4.093,0,5.655
						C202.031,399.594,201.007,399.984,199.984,399.984z"/>
				</g>
			</g>
			<g>
				<g>
					<path fill="#116FFF" d="M199.984,399.984c-1.023,0-2.047-0.391-2.828-1.172c-1.562-1.562-1.562-4.093,0-5.655l7.999-7.999
						c1.562-1.562,4.093-1.562,5.656,0c1.562,1.562,1.562,4.093,0,5.655l-7.999,7.999
						C202.031,399.594,201.007,399.984,199.984,399.984z"/>
				</g>
			</g>
			<g>
				<g>
					<path fill="#116FFF" d="M215.982,399.984c-1.023,0-2.046-0.391-2.827-1.172l-8-7.999c-1.562-1.562-1.562-4.094,0-5.655
						c1.562-1.562,4.093-1.562,5.656,0l7.999,7.999c1.562,1.562,1.562,4.093,0,5.655
						C218.029,399.594,217.005,399.984,215.982,399.984z"/>
				</g>
			</g>
			<g>
				<g>
					<path fill="#116FFF" d="M215.982,399.984c-1.023,0-2.046-0.391-2.827-1.172c-1.562-1.562-1.562-4.093,0-5.655l7.999-7.999
						c1.562-1.562,4.093-1.562,5.655,0c1.562,1.562,1.562,4.093,0,5.655l-7.999,7.999
						C218.029,399.594,217.005,399.984,215.982,399.984z"/>
				</g>
			</g>
			<g>
				<g>
					<path fill="#116FFF" d="M231.98,399.984c-1.023,0-2.046-0.391-2.828-1.172l-7.999-7.999c-1.562-1.562-1.562-4.094,0-5.655
						c1.562-1.562,4.093-1.562,5.655,0l7.999,7.999c1.562,1.562,1.562,4.093,0,5.655
						C234.027,399.594,233.004,399.984,231.98,399.984z"/>
				</g>
			</g>
			<g>
				<g>
					<path fill="#116FFF" d="M231.98,399.984c-1.023,0-2.046-0.391-2.828-1.172c-1.562-1.562-1.562-4.093,0-5.655l7.999-7.999
						c1.562-1.562,4.093-1.562,5.655,0c1.562,1.562,1.562,4.093,0,5.655l-7.999,7.999
						C234.027,399.594,233.004,399.984,231.98,399.984z"/>
				</g>
			</g>
			<g>
				<g>
					<path fill="#116FFF" d="M247.979,399.984c-1.023,0-2.047-0.391-2.828-1.172l-7.999-7.999c-1.562-1.562-1.562-4.094,0-5.655
						c1.562-1.562,4.093-1.562,5.655,0l8,7.999c1.562,1.562,1.562,4.093,0,5.655C250.025,399.594,249.002,399.984,247.979,399.984z"
						/>
				</g>
			</g>
		</g>
		<g>
			<g>
				<path fill="#116FFF" d="M375.964,303.995c-2.21,0-3.999-1.789-3.999-4v-23.997c0-2.211,1.789-4,3.999-4c2.211,0,4,1.789,4,4
					v23.997C379.964,302.206,378.175,303.995,375.964,303.995z"/>
			</g>
		</g>
		<g>
			<g>
				<path fill="#116FFF" d="M391.963,303.995c-2.211,0-4-1.789-4-4v-23.989c0-2.211,1.789-4,4-4c2.21,0,3.999,1.789,3.999,4v23.989
					C395.962,302.206,394.173,303.995,391.963,303.995z"/>
			</g>
		</g>
		<g>
			<g>
				<path fill="#116FFF" d="M391.963,303.995h-15.999c-2.21,0-3.999-1.789-3.999-4s1.789-3.999,3.999-3.999h15.999
					c2.21,0,3.999,1.788,3.999,3.999S394.173,303.995,391.963,303.995z"/>
			</g>
		</g>
		<g>
			<g>
				<path fill="#116FFF" d="M239.98,463.978c-2.211,0-4-1.789-4-4s1.789-3.999,4-3.999c81.599,0,147.983-66.384,147.983-147.984
					c0-2.21,1.789-3.999,4-3.999c2.21,0,3.999,1.789,3.999,3.999C395.962,394.001,325.985,463.978,239.98,463.978z"/>
			</g>
		</g>
		<g>
			<g>
				<path fill="#116FFF" d="M239.98,447.979c-2.211,0-4-1.789-4-4s1.789-4,4-4c72.773,0,131.985-59.212,131.985-131.985
					c0-2.21,1.789-3.999,3.999-3.999c2.211,0,4,1.789,4,3.999C379.964,385.182,317.166,447.979,239.98,447.979z"/>
			</g>
		</g>
		<g>
			<g>
				<path fill="#116FFF" d="M231.98,447.979h-24.021c-2.21,0-3.999-1.789-3.999-4s1.789-4,3.999-4h24.021c2.21,0,4,1.789,4,4
					S234.191,447.979,231.98,447.979z"/>
			</g>
		</g>
		<g>
			<g>
				<path fill="#116FFF" d="M231.98,463.978h-39.996c-2.211,0-4-1.789-4-4s1.789-3.999,4-3.999h39.996c2.21,0,4,1.788,4,3.999
					S234.191,463.978,231.98,463.978z"/>
			</g>
		</g>
		<g>
			<g>
				<path fill="#116FFF" d="M231.98,463.978c-2.21,0-4-1.789-4-4v-15.998c0-2.211,1.789-4,4-4s4,1.789,4,4v15.998
					C235.98,462.188,234.191,463.978,231.98,463.978z"/>
			</g>
		</g>
	</g>
</g>
</svg>
