<svg xmlns="http://www.w3.org/2000/svg" viewBox="0 0 32 32"><defs><style>.cls-1{fill:#d1e6e9;}.cls-2{fill:#a1d8df;}.cls-3{fill:#68c7d3;}.cls-4{fill:#30acc2;}</style></defs><title>Blood Donation</title><g id="Blood_Donation" data-name="Blood Donation"><path class="cls-1" d="M19,4.35c0,16.94.23,16.42-.59,17.24C15.62,24.38,15.28,25,14.17,25c-8.79,0-9,.2-9.76-.59C1.62,21.62,1,21.28,1,20.17V4.35A2,2,0,0,1,2.26,2.5a20.69,20.69,0,0,1,15.45,0A2,2,0,0,1,19,4.35Z"/><path class="cls-2" d="M17,20l-3,3H6L3,20V8A1,1,0,0,1,4,7H16a1,1,0,0,1,1,1Z"/><path class="cls-3" d="M12,5H8A1,1,0,0,1,8,3h4A1,1,0,0,1,12,5Z"/><path class="cls-1" d="M6,25h8a0,0,0,0,1,0,0v1a1,1,0,0,1-1,1H7a1,1,0,0,1-1-1V25A0,0,0,0,1,6,25Z"/><rect class="cls-3" x="7" y="27" width="2" height="4"/><path class="cls-4" d="M13,16a3,3,0,0,1-6,0c0-1.66,3-5,3-5S13,14.34,13,16Z"/><path class="cls-2" d="M24,31H14a3,3,0,0,1-3-3V27h2v1a1,1,0,0,0,1,1H24a1,1,0,0,0,1-1V18h2V28A3,3,0,0,1,24,31Z"/><path class="cls-2" d="M30,16.8,26,20l-4-3.2c-1.91-1.53-.91-4.8,1.5-4.8,1.32,0,1.69.47,2.5,1.33l.52-.55A2.42,2.42,0,0,1,28.29,12,2.69,2.69,0,0,1,30,16.8Z"/></g></svg>