<svg xmlns="http://www.w3.org/2000/svg" viewBox="0 0 64 64"><defs><style>.cls-1{fill:#8bc4ff;}.cls-2{fill:#d1e7ff;}.cls-3{fill:#a2d0ff;}.cls-4{fill:#e8f3ff;}.cls-5{fill:#2e58ff;}</style></defs><title>Cctv</title><g id="Cctv"><rect class="cls-1" y="49" width="27" height="8" transform="translate(27 106) rotate(-180)"/><path class="cls-2" d="M2,11V31a6,6,0,0,0,6,6H24L34.34,16.32A6,6,0,0,1,39.71,13H56a6,6,0,0,0,6-6V5H8A6,6,0,0,0,2,11Z"/><path class="cls-3" d="M54,13V33a4,4,0,0,1-4,4H24L34.34,16.32A6,6,0,0,1,39.71,13Z"/><rect class="cls-2" x="54" y="21" width="8" height="10" transform="translate(116 52) rotate(-180)"/><rect class="cls-1" x="25" y="33" width="8" height="20" transform="translate(58 86) rotate(-180)"/><circle class="cls-4" cx="29" cy="31" r="6"/><circle class="cls-4" cx="29" cy="53" r="6"/><path class="cls-5" d="M64,7V5a2,2,0,0,0-2-2H8a8,8,0,0,0-8,8V31a8,8,0,0,0,8,8H23v8H2a2,2,0,0,0,0,4H21.25a8.2,8.2,0,0,0,0,4H2a2,2,0,0,0,0,4H23.72A8,8,0,0,0,35,47.72V39H50a6,6,0,0,0,6-6h6a2,2,0,0,0,2-2V21a2,2,0,0,0-2-2H56V15A8,8,0,0,0,64,7ZM4,31V11A4,4,0,0,1,8,7H60a4,4,0,0,1-4,4H39.71a8,8,0,0,0-7.16,4.42L28.76,23a8,8,0,0,0-6.68,12H8A4,4,0,0,1,4,31Zm27-3.47a4,4,0,1,1-4.8.63,4,4,0,0,1,4.8-.63A0,0,0,0,1,31,27.53ZM25,53a4,4,0,1,1,7.46,2A4,4,0,0,1,25,53Zm6-7.75a8.2,8.2,0,0,0-4,0V39h4ZM60,23v6H56V23ZM52,33a2,2,0,0,1-2,2H35.92a8,8,0,0,0-3.16-11l3.37-6.74A4,4,0,0,1,39.71,15H52Z"/></g></svg>