<svg xmlns="http://www.w3.org/2000/svg" viewBox="0 0 25 25"><defs><style>.cls-1{fill:#231f20;}</style></defs><g id="person-female"><path class="cls-1" d="M22,20.71l-1.2-4.1A5.07,5.07,0,0,0,15.87,13h-.31A6.18,6.18,0,0,0,18,8c0-.16,0-.32,0-.48v0a.44.44,0,0,0,0-.3,5.76,5.76,0,0,0-.37-1.51,1.89,1.89,0,0,0,1.17-.45,2.38,2.38,0,0,0-.13-3.31,2.38,2.38,0,0,0-3.27-.53,1.82,1.82,0,0,0-.58,1.13A5.16,5.16,0,0,0,12.49,2,5.79,5.79,0,0,0,7,8a6.16,6.16,0,0,0,2.43,5h-.3a5.08,5.08,0,0,0-4.88,3.61L3,20.71A1.08,1.08,0,0,0,3.63,22a25.39,25.39,0,0,0,8.86,2h0a25.3,25.3,0,0,0,8.82-2A1.09,1.09,0,0,0,22,20.71ZM16,2.16a1.42,1.42,0,0,1,1.86.45c.56.63.66,1.5.22,1.89a1,1,0,0,1-.91.16h-.11a5.84,5.84,0,0,0-1.34-1.5.38.38,0,0,0,0-.15A1,1,0,0,1,16,2.16ZM12.49,3a4.63,4.63,0,0,1,4.34,3.72,7.22,7.22,0,0,1-1.59-.63,4.7,4.7,0,0,1-2.11-2.28.5.5,0,0,0-.57-.3.51.51,0,0,0-.39.51A2.44,2.44,0,0,1,11,6.11,5.39,5.39,0,0,1,8.09,7,4.65,4.65,0,0,1,12.49,3ZM8,8S8,8,8,8a6.47,6.47,0,0,0,3.53-1,3.82,3.82,0,0,0,1.37-1.58A6,6,0,0,0,14.75,7,8.23,8.23,0,0,0,17,7.79c0,.08,0,.15,0,.23a5.1,5.1,0,0,1-2.4,4.43,3.07,3.07,0,0,1-.31.17.5.5,0,0,0-.28.5s0,.05,0,.07V16H11V13.14a.49.49,0,0,0-.28-.5l-.3-.17A5.09,5.09,0,0,1,8,8ZM4,21l1.19-4.1A4.09,4.09,0,0,1,9.11,14h.78L10,14V22.8a25,25,0,0,1-5.94-1.69Q4,21.07,4,21Zm8.53,2h0c-.48,0-1,0-1.49-.09V17h3v5.87a.43.43,0,0,0,0,.05A13,13,0,0,1,12.53,23Zm8.4-1.91A26.25,26.25,0,0,1,15,22.79L15,14l.11,0h.76a4.09,4.09,0,0,1,3.92,2.89L21,21A.1.1,0,0,1,20.93,21.11Z"/></g></svg>