<?xml version="1.0" encoding="utf-8"?>
<!-- Generator: Adobe Illustrator 16.0.0, SVG Export Plug-In . SVG Version: 6.00 Build 0)  -->
<!DOCTYPE svg PUBLIC "-//W3C//DTD SVG 1.1//EN" "http://www.w3.org/Graphics/SVG/1.1/DTD/svg11.dtd">
<svg version="1.1" id="Layer_1" xmlns="http://www.w3.org/2000/svg" xmlns:xlink="http://www.w3.org/1999/xlink" x="0px" y="0px"
	 width="512px" height="512px" viewBox="0 0 512 512" enable-background="new 0 0 512 512" xml:space="preserve">
<g id="_x31_0._stretcher_x2C__dropper_x2C__bed_x2C__medicine_x2C__hospital_x2C__treatment_x2C__disease_1_">
	<g>
		<g>
			<circle fill="#5C9EFF" cx="383.986" cy="451.979" r="19.998"/>
		</g>
	</g>
	<g>
		<g>
			<circle fill="#5C9EFF" cx="120.015" cy="451.979" r="19.998"/>
		</g>
	</g>
	<g>
		<g>
			<path fill="#94C1FF" d="M108.016,451.979c0-9.671,6.867-17.74,15.999-19.591c-1.289-0.266-2.632-0.406-4-0.406
				c-11.046,0-19.998,8.951-19.998,19.997s8.952,19.998,19.998,19.998c1.367,0,2.711-0.141,4-0.406
				C114.882,469.719,108.016,461.649,108.016,451.979z"/>
		</g>
	</g>
	<g>
		<g>
			<path fill="#2287FF" d="M132.014,451.979c0,9.671-6.867,17.74-15.999,19.592c1.289,0.266,2.632,0.406,4,0.406
				c11.046,0,19.998-8.952,19.998-19.998s-8.952-19.997-19.998-19.997c-1.367,0-2.711,0.141-4,0.406
				C125.147,434.238,132.014,442.308,132.014,451.979z"/>
		</g>
	</g>
	<g>
		<g>
			<path fill="#94C1FF" d="M371.987,451.979c0-9.671,6.866-17.74,15.998-19.591c-1.289-0.266-2.632-0.406-3.999-0.406
				c-11.046,0-19.998,8.951-19.998,19.997s8.952,19.998,19.998,19.998c1.367,0,2.71-0.141,3.999-0.406
				C378.854,469.719,371.987,461.649,371.987,451.979z"/>
		</g>
	</g>
	<g>
		<g>
			<path fill="#2287FF" d="M395.984,451.979c0,9.671-6.866,17.74-15.998,19.592c1.289,0.266,2.633,0.406,4,0.406
				c11.045,0,19.997-8.952,19.997-19.998s-8.952-19.997-19.997-19.997c-1.367,0-2.711,0.141-4,0.406
				C389.118,434.238,395.984,442.308,395.984,451.979z"/>
		</g>
	</g>
	<g>
		<g>
			<polygon fill="#D7E9FF" points="395.984,423.981 387.985,447.979 379.986,447.979 379.986,423.981 			"/>
		</g>
	</g>
	<g>
		<g>
			<polygon fill="#D7E9FF" points="132.014,423.981 124.014,447.979 116.015,447.979 116.015,423.981 			"/>
		</g>
	</g>
	<g>
		<g>
			<rect x="411.982" y="56.022" fill="#D7E9FF" width="47.995" height="31.997"/>
		</g>
	</g>
	<g>
		<g>
			<polygon fill="#94C1FF" points="459.978,88.019 459.978,104.017 447.979,120.015 423.981,120.015 411.982,104.017 
				411.982,88.019 			"/>
		</g>
	</g>
	<g>
		<g>
			<polygon fill="#D7E9FF" points="419.982,88.019 411.982,88.019 411.982,104.017 423.981,120.015 431.98,120.015 419.982,102.017 
							"/>
		</g>
	</g>
	<g>
		<g>
			<polygon fill="#5C9EFF" points="451.979,88.019 459.978,88.019 459.978,104.017 447.979,120.015 439.979,120.015 
				451.979,102.017 			"/>
		</g>
	</g>
	<g>
		<g>
			<rect x="411.982" y="271.998" fill="#94C1FF" width="23.998" height="15.999"/>
		</g>
	</g>
	<g>
		<g>
			<rect x="355.989" y="391.985" fill="#94C1FF" width="23.997" height="15.998"/>
		</g>
	</g>
	<g>
		<g>
			<rect x="132.014" y="391.985" fill="#94C1FF" width="23.997" height="15.998"/>
		</g>
	</g>
	<g>
		<g>
			<polygon fill="#D7E9FF" points="150.168,375.987 174.165,375.987 347.99,375.987 395.984,375.987 395.984,423.981 
				379.986,423.981 379.986,407.983 379.986,391.985 355.989,391.985 156.011,391.985 132.014,391.985 132.014,407.983 
				132.014,423.981 116.015,423.981 116.015,375.987 			"/>
		</g>
	</g>
	<g>
		<g>
			<polygon fill="#D7E9FF" points="174.165,279.997 242.158,319.353 339.99,375.987 363.988,375.987 198.162,279.997 
				198.162,271.998 174.165,271.998 			"/>
		</g>
	</g>
	<g>
		<g>
			<polygon fill="#E6E9ED" points="339.99,279.997 271.998,319.353 174.165,375.987 150.168,375.987 315.993,279.997 
				315.993,271.998 339.99,271.998 			"/>
		</g>
	</g>
	<g>
		<g>
			<polygon fill="#D7E9FF" points="339.99,279.997 271.998,319.353 174.165,375.987 150.168,375.987 315.993,279.997 
				315.993,271.998 339.99,271.998 			"/>
		</g>
	</g>
	<g>
		<g>
			<path fill="#94C1FF" d="M20.025,216.004h151.983H339.99h151.984c8.881,0,15.998,7.121,15.998,15.999v15.998H339.99h-23.997
				H196.006h-23.998H4.027v-15.998C4.027,223.125,11.144,216.004,20.025,216.004z"/>
		</g>
	</g>
	<g>
		<g>
			<path fill="#D7E9FF" d="M491.975,216.004H339.99H172.009H20.025c-8.882,0-15.998,7.121-15.998,15.999v7.999
				c0-8.878,7.116-15.998,15.998-15.998h151.983H339.99h151.984c8.881,0,15.998,7.12,15.998,15.998v-7.999
				C507.973,223.125,500.855,216.004,491.975,216.004z"/>
		</g>
	</g>
	<g>
		<g>
			<rect x="411.982" y="56.022" fill="#FFFFFF" width="8" height="31.997"/>
		</g>
	</g>
	<g>
		<g>
			<rect x="451.979" y="56.022" fill="#94C1FF" width="7.999" height="31.997"/>
		</g>
	</g>
	<g id="_x31_0._stretcher_x2C__dropper_x2C__bed_x2C__medicine_x2C__hospital_x2C__treatment_x2C__disease">
		<g>
			<g>
				<g>
					<path fill="#116FFF" d="M395.984,379.986H116.015c-2.21,0-4-1.788-4-3.999s1.789-4,4-4h279.969c2.211,0,4,1.789,4,4
						S398.195,379.986,395.984,379.986z"/>
				</g>
			</g>
			<g>
				<g>
					<path fill="#116FFF" d="M379.986,419.982c-2.211,0-4-1.789-4-4v-23.997c0-2.211,1.789-4,4-4s4,1.789,4,4v23.997
						C383.986,418.193,382.197,419.982,379.986,419.982z"/>
				</g>
			</g>
			<g>
				<g>
					<path fill="#116FFF" d="M371.987,411.983h-15.998c-2.211,0-4-1.789-4-4s1.789-4,4-4h15.998c2.211,0,3.999,1.789,3.999,4
						S374.198,411.983,371.987,411.983z"/>
				</g>
			</g>
			<g>
				<g>
					<path fill="#116FFF" d="M355.989,411.983c-2.211,0-4-1.789-4-4v-7.999c0-2.211,1.789-3.999,4-3.999
						c2.21,0,3.999,1.788,3.999,3.999v7.999C359.988,410.194,358.199,411.983,355.989,411.983z"/>
				</g>
			</g>
			<g>
				<g>
					<path fill="#116FFF" d="M156.011,411.983h-15.998c-2.211,0-4-1.789-4-4s1.789-4,4-4h15.998c2.211,0,4,1.789,4,4
						S158.222,411.983,156.011,411.983z"/>
				</g>
			</g>
			<g>
				<g>
					<path fill="#116FFF" d="M156.011,411.983c-2.211,0-4-1.789-4-4v-7.999c0-2.211,1.789-3.999,4-3.999s4,1.788,4,3.999v7.999
						C160.01,410.194,158.222,411.983,156.011,411.983z"/>
				</g>
			</g>
			<g>
				<g>
					<path fill="#116FFF" d="M395.984,427.981h-15.998c-2.211,0-4-1.789-4-4c0-2.21,1.789-3.999,4-3.999h15.998
						c2.211,0,4,1.789,4,3.999C399.984,426.192,398.195,427.981,395.984,427.981z"/>
				</g>
			</g>
			<g>
				<g>
					<path fill="#116FFF" d="M379.986,451.979c-2.211,0-4-1.788-4-3.999v-23.998c0-2.21,1.789-3.999,4-3.999s4,1.789,4,3.999v23.998
						C383.986,450.19,382.197,451.979,379.986,451.979z"/>
				</g>
			</g>
			<g>
				<g>
					<path fill="#116FFF" d="M387.985,451.979h-7.999c-2.211,0-4-1.788-4-3.999s1.789-4,4-4h7.999c2.211,0,4,1.789,4,4
						S390.196,451.979,387.985,451.979z"/>
				</g>
			</g>
			<g>
				<g>
					<path fill="#116FFF" d="M387.985,451.979c-0.422,0-0.844-0.062-1.266-0.203c-2.093-0.703-3.226-2.968-2.53-5.062l7.999-23.998
						c0.71-2.093,2.976-3.218,5.062-2.53c2.094,0.703,3.227,2.968,2.531,5.062l-7.999,23.998
						C391.22,450.917,389.657,451.979,387.985,451.979z"/>
				</g>
			</g>
			<g>
				<g>
					<path fill="#116FFF" d="M383.986,475.976c-13.233,0-23.998-10.764-23.998-23.997c0-7.624,3.5-14.615,9.601-19.2
						c1.758-1.312,4.273-0.969,5.593,0.796c1.328,1.766,0.977,4.281-0.796,5.609c-4.062,3.046-6.397,7.718-6.397,12.795
						c0,8.827,7.178,15.999,15.998,15.999c8.818,0,15.998-7.172,15.998-15.999c0-3.749-1.32-7.382-3.711-10.249
						c-1.414-1.688-1.188-4.218,0.508-5.632c1.672-1.414,4.211-1.195,5.633,0.508c3.593,4.296,5.569,9.757,5.569,15.373
						C407.983,465.212,397.219,475.976,383.986,475.976z"/>
				</g>
			</g>
			<g>
				<g>
					<path fill="#116FFF" d="M116.015,419.982c-2.21,0-4-1.789-4-4v-39.995c0-2.211,1.789-4,4-4s4,1.789,4,4v39.995
						C120.015,418.193,118.226,419.982,116.015,419.982z"/>
				</g>
			</g>
			<g>
				<g>
					<path fill="#116FFF" d="M132.014,419.982c-2.211,0-4-1.789-4-4v-23.997c0-2.211,1.789-4,4-4c2.21,0,3.999,1.789,3.999,4v23.997
						C136.013,418.193,134.224,419.982,132.014,419.982z"/>
				</g>
			</g>
			<g>
				<g>
					<path fill="#116FFF" d="M132.014,427.981h-15.999c-2.21,0-4-1.789-4-4c0-2.21,1.789-3.999,4-3.999h15.999
						c2.21,0,3.999,1.789,3.999,3.999C136.013,426.192,134.224,427.981,132.014,427.981z"/>
				</g>
			</g>
			<g>
				<g>
					<path fill="#116FFF" d="M116.015,451.979c-2.21,0-4-1.788-4-3.999v-23.998c0-2.21,1.789-3.999,4-3.999s4,1.789,4,3.999v23.998
						C120.015,450.19,118.226,451.979,116.015,451.979z"/>
				</g>
			</g>
			<g>
				<g>
					<path fill="#116FFF" d="M124.014,451.979h-7.999c-2.21,0-4-1.788-4-3.999s1.789-4,4-4h7.999c2.21,0,4,1.789,4,4
						S126.225,451.979,124.014,451.979z"/>
				</g>
			</g>
			<g>
				<g>
					<path fill="#116FFF" d="M124.014,451.979c-0.422,0-0.843-0.062-1.265-0.203c-2.094-0.703-3.227-2.968-2.531-5.062l7.999-23.998
						c0.703-2.093,2.984-3.218,5.062-2.53c2.093,0.703,3.226,2.968,2.531,5.062l-7.999,23.998
						C127.248,450.917,125.686,451.979,124.014,451.979z"/>
				</g>
			</g>
			<g>
				<g>
					<path fill="#116FFF" d="M120.015,475.976c-13.233,0-23.997-10.764-23.997-23.997c0-7.624,3.499-14.615,9.6-19.2
						c1.758-1.312,4.273-0.969,5.593,0.796c1.328,1.766,0.977,4.281-0.797,5.609c-4.062,3.046-6.397,7.718-6.397,12.795
						c0,8.827,7.179,15.999,15.998,15.999s15.998-7.172,15.998-15.999c0-3.749-1.32-7.382-3.71-10.249
						c-1.414-1.688-1.188-4.218,0.507-5.632c1.664-1.414,4.21-1.195,5.632,0.508c3.593,4.296,5.569,9.757,5.569,15.373
						C144.012,465.212,133.248,475.976,120.015,475.976z"/>
				</g>
			</g>
			<g>
				<g>
					<path fill="#116FFF" d="M395.984,419.982c-2.211,0-3.999-1.789-3.999-4v-39.995c0-2.211,1.788-4,3.999-4s4,1.789,4,4v39.995
						C399.984,418.193,398.195,419.982,395.984,419.982z"/>
				</g>
			</g>
			<g>
				<g>
					<path fill="#116FFF" d="M379.986,395.985H132.014c-2.211,0-4-1.789-4-4s1.789-4,4-4h247.973c2.211,0,4,1.789,4,4
						S382.197,395.985,379.986,395.985z"/>
				</g>
			</g>
			<g>
				<g>
					<path fill="#116FFF" d="M164.01,371.987c-1.375,0-2.718-0.719-3.46-2c-1.109-1.906-0.453-4.358,1.453-5.46l151.984-87.99
						c1.897-1.109,4.351-0.461,5.468,1.461c1.109,1.905,0.453,4.358-1.453,5.46l-151.983,87.99
						C165.385,371.815,164.697,371.987,164.01,371.987z"/>
				</g>
			</g>
			<g>
				<g>
					<path fill="#116FFF" d="M188.007,371.987c-1.375,0-2.718-0.719-3.46-2c-1.109-1.906-0.453-4.358,1.453-5.46l151.983-87.99
						c1.897-1.109,4.351-0.461,5.468,1.461c1.109,1.905,0.453,4.358-1.453,5.46l-151.983,87.99
						C189.382,371.815,188.694,371.987,188.007,371.987z"/>
				</g>
			</g>
			<g>
				<g>
					<path fill="#116FFF" d="M248.009,314.104c-0.688,0-1.375-0.172-2.008-0.539l-52.002-30.106
						c-1.906-1.102-2.562-3.555-1.453-5.46c1.109-1.922,3.562-2.57,5.468-1.461l52.002,30.106c1.906,1.101,2.562,3.554,1.453,5.46
						C250.727,313.385,249.383,314.104,248.009,314.104z"/>
				</g>
			</g>
			<g>
				<g>
					<path fill="#116FFF" d="M347.99,371.987c-0.688,0-1.375-0.172-2.008-0.539l-72.016-41.69c-1.906-1.109-2.562-3.555-1.453-5.468
						c1.109-1.922,3.562-2.555,5.469-1.453l72.016,41.69c1.905,1.102,2.562,3.554,1.452,5.46
						C350.708,371.269,349.365,371.987,347.99,371.987z"/>
				</g>
			</g>
			<g>
				<g>
					<path fill="#116FFF" d="M236.01,321.048c-0.688,0-1.375-0.172-2.008-0.539l-64-37.051c-1.906-1.102-2.562-3.555-1.453-5.46
						c1.109-1.922,3.562-2.57,5.468-1.461l64.001,37.051c1.906,1.108,2.562,3.554,1.453,5.468
						C238.729,320.337,237.385,321.048,236.01,321.048z"/>
				</g>
			</g>
			<g>
				<g>
					<path fill="#116FFF" d="M323.992,371.987c-0.688,0-1.375-0.172-2.008-0.539l-60.009-34.746
						c-1.905-1.102-2.562-3.555-1.453-5.46c1.109-1.922,3.57-2.57,5.469-1.461L326,364.527c1.906,1.102,2.562,3.554,1.453,5.46
						C326.711,371.269,325.367,371.987,323.992,371.987z"/>
				</g>
			</g>
		</g>
		<g>
			<g>
				<path fill="#116FFF" d="M483.975,275.998H44.023c-2.21,0-4-1.789-4-4c0-2.21,1.789-3.999,4-3.999h439.952
					c2.211,0,4,1.789,4,3.999C487.975,274.209,486.186,275.998,483.975,275.998z"/>
			</g>
		</g>
		<g>
			<g>
				<path fill="#116FFF" d="M44.023,275.998c-0.602,0-1.211-0.141-1.789-0.422l-31.997-15.998c-1.976-0.988-2.773-3.391-1.789-5.367
					c1-1.979,3.39-2.761,5.367-1.788l31.996,15.998c1.977,0.984,2.773,3.39,1.789,5.366
					C46.897,275.186,45.483,275.998,44.023,275.998z"/>
			</g>
		</g>
		<g>
			<g>
				<path fill="#116FFF" d="M52.022,275.998c-2.21,0-4-1.789-4-4V256c0-2.211,1.789-3.999,4-3.999s4,1.788,4,3.999v15.998
					C56.021,274.209,54.232,275.998,52.022,275.998z"/>
			</g>
		</g>
		<g>
			<g>
				<path fill="#116FFF" d="M172.009,275.998c-2.21,0-3.999-1.789-3.999-4V256c0-2.211,1.789-3.999,3.999-3.999
					c2.211,0,4,1.788,4,3.999v15.998C176.009,274.209,174.22,275.998,172.009,275.998z"/>
			</g>
		</g>
		<g>
			<g>
				<path fill="#116FFF" d="M196.006,275.998c-2.21,0-4-1.789-4-4V256c0-2.211,1.789-3.999,4-3.999s4,1.788,4,3.999v15.998
					C200.006,274.209,198.217,275.998,196.006,275.998z"/>
			</g>
		</g>
		<g>
			<g>
				<path fill="#116FFF" d="M339.99,275.998c-2.21,0-3.999-1.789-3.999-4V256c0-2.211,1.789-3.999,3.999-3.999
					c2.211,0,4,1.788,4,3.999v15.998C343.99,274.209,342.201,275.998,339.99,275.998z"/>
			</g>
		</g>
		<g>
			<g>
				<path fill="#116FFF" d="M315.993,275.998c-2.21,0-3.999-1.789-3.999-4V256c0-2.211,1.789-3.999,3.999-3.999
					c2.211,0,4,1.788,4,3.999v15.998C319.993,274.209,318.204,275.998,315.993,275.998z"/>
			</g>
		</g>
		<g>
			<g>
				<path fill="#116FFF" d="M483.975,275.998c-1.289,0-2.554-0.625-3.327-1.781c-1.227-1.844-0.727-4.319,1.109-5.546l23.997-15.998
					c1.82-1.219,4.305-0.734,5.547,1.108c1.226,1.84,0.726,4.32-1.109,5.547l-23.998,15.998
					C485.514,275.779,484.74,275.998,483.975,275.998z"/>
			</g>
		</g>
		<g>
			<g>
				<path fill="#116FFF" d="M507.973,252.001H4.027c-2.211,0-4-1.789-4-4s1.789-4,4-4h503.945c2.211,0,3.999,1.789,3.999,4
					S510.184,252.001,507.973,252.001z"/>
			</g>
		</g>
		<g>
			<g>
				<path fill="#116FFF" d="M4.027,236.002c-2.211,0-4-1.788-4-3.999c0-11.026,8.968-19.998,19.998-19.998c2.211,0,4,1.789,4,4
					s-1.789,4-4,4c-6.616,0-11.999,5.382-11.999,11.999C8.027,234.214,6.238,236.002,4.027,236.002z"/>
			</g>
		</g>
		<g>
			<g>
				<path fill="#116FFF" d="M507.973,236.002c-2.211,0-4-1.788-4-3.999c0-6.617-5.382-11.999-11.998-11.999c-2.211,0-4-1.789-4-4
					s1.789-4,4-4c11.029,0,19.997,8.972,19.997,19.998C511.972,234.214,510.184,236.002,507.973,236.002z"/>
			</g>
		</g>
		<g>
			<g>
				<path fill="#116FFF" d="M491.975,220.004H20.025c-2.21,0-4-1.789-4-4s1.789-4,4-4h471.949c2.21,0,3.999,1.789,3.999,4
					S494.185,220.004,491.975,220.004z"/>
			</g>
		</g>
		<g>
			<g>
				<path fill="#116FFF" d="M411.982,291.996c-2.21,0-3.999-1.789-3.999-3.999v-8c0-2.21,1.789-3.999,3.999-3.999
					c2.211,0,4,1.789,4,3.999v8C415.982,290.207,414.193,291.996,411.982,291.996z"/>
			</g>
		</g>
		<g>
			<g>
				<path fill="#116FFF" d="M435.98,291.996h-23.998c-2.21,0-3.999-1.789-3.999-3.999c0-2.211,1.789-4,3.999-4h23.998
					c2.211,0,3.999,1.789,3.999,4C439.979,290.207,438.191,291.996,435.98,291.996z"/>
			</g>
		</g>
		<g>
			<g>
				<path fill="#116FFF" d="M435.98,291.996c-2.211,0-4-1.789-4-3.999v-8c0-2.21,1.789-3.999,4-3.999s3.999,1.789,3.999,3.999v8
					C439.979,290.207,438.191,291.996,435.98,291.996z"/>
			</g>
		</g>
		<g>
			<g>
				<path fill="#116FFF" d="M475.976,291.996h-31.996c-2.211,0-4-1.789-4-3.999c0-2.211,1.789-4,4-4h31.996c2.211,0,4,1.789,4,4
					C479.976,290.207,478.187,291.996,475.976,291.996z"/>
			</g>
		</g>
		<g>
			<g>
				<path fill="#116FFF" d="M475.976,307.994c-2.21,0-3.999-1.788-3.999-3.999v-15.998c0-2.211,1.789-4,3.999-4c2.211,0,4,1.789,4,4
					v15.998C479.976,306.206,478.187,307.994,475.976,307.994z"/>
			</g>
		</g>
		<g>
			<g>
				<path fill="#116FFF" d="M507.973,307.994h-31.997c-2.21,0-3.999-1.788-3.999-3.999s1.789-4,3.999-4h31.997
					c2.211,0,3.999,1.789,3.999,4S510.184,307.994,507.973,307.994z"/>
			</g>
		</g>
		<g>
			<g>
				<path fill="#116FFF" d="M172.009,212.005c-2.21,0-3.999-1.789-3.999-4v-15.999c0-2.21,1.789-3.999,3.999-3.999
					c2.211,0,4,1.789,4,3.999v15.999C176.009,210.216,174.22,212.005,172.009,212.005z"/>
			</g>
		</g>
		<g>
			<g>
				<path fill="#116FFF" d="M172.009,196.007c-2.21,0-3.999-1.789-3.999-4c0-6.616,5.382-11.999,11.998-11.999c2.211,0,4,1.789,4,4
					c0,2.211-1.789,4-4,4c-2.203,0-3.999,1.792-3.999,3.999C176.009,194.218,174.22,196.007,172.009,196.007z"/>
			</g>
		</g>
		<g>
			<g>
				<path fill="#116FFF" d="M339.99,212.005c-2.21,0-3.999-1.789-3.999-4v-15.999c0-2.21,1.789-3.999,3.999-3.999
					c2.211,0,4,1.789,4,3.999v15.999C343.99,210.216,342.201,212.005,339.99,212.005z"/>
			</g>
		</g>
		<g>
			<g>
				<path fill="#116FFF" d="M339.99,196.007c-2.21,0-3.999-1.789-3.999-4c0-2.207-1.797-3.999-3.999-3.999c-2.211,0-4-1.789-4-4
					c0-2.21,1.789-4,4-4c6.616,0,11.998,5.382,11.998,11.999C343.99,194.218,342.201,196.007,339.99,196.007z"/>
			</g>
		</g>
		<g>
			<g>
				<path fill="#116FFF" d="M331.992,188.008H180.008c-2.21,0-3.999-1.789-3.999-4c0-2.21,1.789-4,3.999-4h151.984
					c2.21,0,3.999,1.789,3.999,4C335.991,186.219,334.202,188.008,331.992,188.008z"/>
			</g>
		</g>
		<g>
			<g>
				<path fill="#116FFF" d="M4.027,252.001c-2.211,0-4-1.789-4-4v-15.998c0-2.211,1.789-4,4-4s4,1.789,4,4v15.998
					C8.027,250.212,6.238,252.001,4.027,252.001z"/>
			</g>
		</g>
		<g>
			<g>
				<path fill="#116FFF" d="M507.973,252.001c-2.211,0-4-1.789-4-4v-15.998c0-2.211,1.789-4,4-4s3.999,1.789,3.999,4v15.998
					C511.972,250.212,510.184,252.001,507.973,252.001z"/>
			</g>
		</g>
		<g>
			<g>
				<path fill="#116FFF" d="M435.98,212.005c-2.211,0-4-1.789-4-4v-79.992c0-2.21,1.789-3.999,4-3.999s3.999,1.789,3.999,3.999
					v79.992C439.979,210.216,438.191,212.005,435.98,212.005z"/>
			</g>
		</g>
		<g>
			<g>
				<path fill="#116FFF" d="M459.978,44.023h-47.995c-2.21,0-3.999-1.789-3.999-4c0-2.21,1.789-3.999,3.999-3.999h47.995
					c2.211,0,4,1.789,4,3.999C463.978,42.234,462.188,44.023,459.978,44.023z"/>
			</g>
		</g>
		<g>
			<g>
				<path fill="#116FFF" d="M447.979,124.015h-23.997c-1.258,0-2.444-0.594-3.202-1.602l-11.999-15.998
					c-0.516-0.691-0.797-1.531-0.797-2.398V56.022c0-2.21,1.789-4,3.999-4h47.995c2.211,0,4,1.789,4,4v47.995
					c0,0.867-0.281,1.707-0.797,2.398l-11.999,15.998C450.424,123.421,449.236,124.015,447.979,124.015z M425.981,116.016h19.998
					l9.999-13.331V60.021h-39.996v42.663L425.981,116.016z"/>
			</g>
		</g>
		<g>
			<g>
				<path fill="#116FFF" d="M451.979,52.022c-2.211,0-4-1.789-4-4v-7.999c0-2.21,1.789-3.999,4-3.999s4,1.789,4,3.999v7.999
					C455.979,50.233,454.189,52.022,451.979,52.022z"/>
			</g>
		</g>
		<g>
			<g>
				<path fill="#116FFF" d="M419.982,52.022c-2.211,0-4-1.789-4-4v-7.999c0-2.21,1.789-3.999,4-3.999
					c2.21,0,3.999,1.789,3.999,3.999v7.999C423.981,50.233,422.192,52.022,419.982,52.022z"/>
			</g>
		</g>
		<g>
			<g>
				<path fill="#116FFF" d="M451.979,92.018h-31.996c-2.211,0-4-1.789-4-4c0-2.211,1.789-4,4-4h31.996c2.211,0,4,1.789,4,4
					C455.979,90.229,454.189,92.018,451.979,92.018z"/>
			</g>
		</g>
		<g>
			<g>
				<path fill="#116FFF" d="M483.975,236.002H28.024c-2.21,0-3.999-1.788-3.999-3.999s1.789-4,3.999-4h455.95c2.211,0,4,1.789,4,4
					S486.186,236.002,483.975,236.002z"/>
			</g>
		</g>
	</g>
</g>
</svg>
