<?xml version="1.0" encoding="utf-8"?>
<!-- Generator: Adobe Illustrator 16.0.0, SVG Export Plug-In . SVG Version: 6.00 Build 0)  -->
<!DOCTYPE svg PUBLIC "-//W3C//DTD SVG 1.1//EN" "http://www.w3.org/Graphics/SVG/1.1/DTD/svg11.dtd">
<svg version="1.1" id="Layer_1" xmlns="http://www.w3.org/2000/svg" xmlns:xlink="http://www.w3.org/1999/xlink" x="0px" y="0px"
	 width="128px" height="128px" viewBox="0 0 128 128" enable-background="new 0 0 128 128" xml:space="preserve">
<g>
	<g>
		<g>
			<path fill="#282D33" d="M108.989,128h-4V82.95l0.595-0.587c8.776-8.667,13.61-20.184,13.61-32.431
				C119.194,24.605,98.282,4,72.578,4C46.871,4,25.956,24.605,25.956,49.933c0,0.698,0.024,1.388,0.055,2.081l0.025,0.588
				L11.785,76.939h9.807v20.924c0,6.025,4.981,10.928,11.105,10.928h22.764V128h-4v-15.209H32.697
				c-8.329,0-15.105-6.696-15.105-14.928V80.939H4.806L21.99,51.595c-0.021-0.552-0.034-1.105-0.034-1.662
				C21.956,22.4,44.665,0,72.578,0c27.91,0,50.616,22.399,50.616,49.932c0,13.045-5.038,25.328-14.205,34.68V128z"/>
		</g>
	</g>
	<g>
		<g>
			<path fill="#282D33" d="M71.983,86.709c-20.557,0-37.28-16.5-37.28-36.781h4c0,18.076,14.93,32.781,33.28,32.781
				c18.35,0,33.277-14.705,33.277-32.781c0-18.075-14.928-32.779-33.277-32.779v-4c20.555,0,37.277,16.499,37.277,36.779
				C109.261,70.209,92.538,86.709,71.983,86.709z"/>
		</g>
		<g>
			<g>
				<path fill="#282D33" d="M38.703,49.928h-4c0-0.7,0.02-1.396,0.06-2.086l3.993,0.233C38.721,48.689,38.703,49.306,38.703,49.928z
					"/>
			</g>
			<g>
				<path fill="#282D33" d="M39.174,44.395l-3.941-0.68c0.238-1.381,0.562-2.766,0.96-4.114l3.836,1.135
					C39.674,41.936,39.386,43.167,39.174,44.395z M41.304,37.203l-3.677-1.575c0.551-1.287,1.185-2.558,1.884-3.777l3.471,1.989
					C42.358,34.926,41.794,36.058,41.304,37.203z M45.034,30.691l-3.22-2.373c0.831-1.127,1.736-2.219,2.691-3.246l2.929,2.725
					C46.583,28.712,45.775,29.686,45.034,30.691z M50.148,25.19l-2.604-3.037c1.061-0.909,2.187-1.769,3.347-2.556l2.246,3.31
					C52.101,23.61,51.095,24.378,50.148,25.19z M56.364,20.976l-1.858-3.542c1.238-0.649,2.528-1.236,3.834-1.743l1.448,3.729
					C58.622,19.872,57.47,20.396,56.364,20.976z M63.366,18.258l-1.019-3.868c1.353-0.356,2.742-0.64,4.128-0.842l0.578,3.958
					C65.814,17.687,64.574,17.939,63.366,18.258z"/>
			</g>
			<g>
				<path fill="#282D33" d="M70.122,17.199l-0.215-3.994c0.688-0.037,1.381-0.056,2.076-0.056v4
					C71.36,17.149,70.739,17.166,70.122,17.199z"/>
			</g>
		</g>
	</g>
	<g>
		<g>
			<rect x="58.178" y="47.928" fill="#282D33" width="27.611" height="4"/>
		</g>
		<g>
			<rect x="69.983" y="36.318" fill="#282D33" width="4" height="27.219"/>
		</g>
	</g>
</g>
</svg>
