<svg xmlns="http://www.w3.org/2000/svg" viewBox="0 0 512 512"><g id="Pregnancy_Test"><path d="M393.8567,236.1626a125.005,125.005,0,0,0-62.5059-38.6816,63.0366,63.0366,0,0,0-6.5078-93.4737L265.3059,57.49a6.5024,6.5024,0,0,0-4.0019-1.3779H144.6716a6.5,6.5,0,0,0-6.5,6.5V210.2163l-1.3071,7.2891a176.559,176.559,0,0,1-21.1187,57.59A211.0608,211.0608,0,0,0,87.2947,380.8579v68.53a6.5,6.5,0,0,0,6.5,6.5H342.5608a6.5,6.5,0,0,0,6.5-6.5v-16.249a124.9137,124.9137,0,0,0,44.7959-196.9766ZM391.65,382.2749A111.7508,111.7508,0,0,1,340.2131,422.71a6.501,6.501,0,0,0-4.1523,6.0616v14.1162H100.2947v-62.03a198.05,198.05,0,0,1,26.6963-99.2412A189.5,189.5,0,0,0,149.66,219.8l1.4092-7.8584a6.5036,6.5036,0,0,0,.102-1.1475V69.1118H259.0657l57.7734,45.14a50.0071,50.0071,0,0,1-3.6875,81.4365,6.5,6.5,0,0,0,2.6045,11.8974,111.9073,111.9073,0,0,1,75.8936,174.69Z"/><path d="M303.3176,238.4a79.9243,79.9243,0,1,0,79.9239,79.9238A80.0141,80.0141,0,0,0,303.3176,238.4Zm0,146.8486a66.922,66.922,0,0,1-6.5-133.5278v3.4448a33.0874,33.0874,0,0,0,12.8907,26.1123l4.7343,3.626,7.9043-10.32-4.7334-3.626a20.0107,20.0107,0,0,1-7.7959-15.792v-3.4448a66.922,66.922,0,0,1-6.5,133.5278Z"/><path d="M303.2952,347.3169c-9.4453,0-17.3653-5.1065-19.26-12.419l-12.584,3.2618c3.3809,13.0459,16.4756,22.1572,31.8438,22.1572,15.334,0,28.7646-9.4766,31.9365-22.5342l-12.6328-3.0683C320.8538,341.8989,312.5549,347.3169,303.2952,347.3169Z"/><circle cx="285.9714" cy="306.325" r="8.2514" transform="translate(-62.2053 539.5366) rotate(-80.7826)"/><circle cx="320.6641" cy="306.325" r="8.2514"/></g></svg>