<svg xmlns="http://www.w3.org/2000/svg" viewBox="0 0 32 32"><defs><style>.cls-1{fill:#d1e6e9;}.cls-2{fill:#68c7d3;}.cls-3{fill:#30acc2;}.cls-4{fill:#a1d8df;}</style></defs><title>Pharmacy</title><g id="Pharmacy"><rect class="cls-1" x="3" y="14" width="26" height="17"/><polygon class="cls-2" points="5 7 27 7 31 14 1 14 5 7"/><circle class="cls-3" cx="16" cy="6" r="5"/><rect class="cls-1" x="13" y="5" width="6" height="2"/><rect class="cls-1" x="13" y="5" width="6" height="2" transform="translate(22 -10) rotate(90)"/><path class="cls-2" d="M1,14H6a0,0,0,0,1,0,0v.5A2.5,2.5,0,0,1,3.5,17h0A2.5,2.5,0,0,1,1,14.5V14A0,0,0,0,1,1,14Z"/><path class="cls-2" d="M6,14h5a0,0,0,0,1,0,0v.5A2.5,2.5,0,0,1,8.5,17h0A2.5,2.5,0,0,1,6,14.5V14A0,0,0,0,1,6,14Z"/><path class="cls-2" d="M11,14h5a0,0,0,0,1,0,0v.5A2.5,2.5,0,0,1,13.5,17h0A2.5,2.5,0,0,1,11,14.5V14A0,0,0,0,1,11,14Z"/><path class="cls-2" d="M16,14h5a0,0,0,0,1,0,0v.5A2.5,2.5,0,0,1,18.5,17h0A2.5,2.5,0,0,1,16,14.5V14a0,0,0,0,1,0,0Z"/><path class="cls-2" d="M21,14h5a0,0,0,0,1,0,0v.5A2.5,2.5,0,0,1,23.5,17h0A2.5,2.5,0,0,1,21,14.5V14A0,0,0,0,1,21,14Z"/><path class="cls-2" d="M26,14h5a0,0,0,0,1,0,0v.5A2.5,2.5,0,0,1,28.5,17h0A2.5,2.5,0,0,1,26,14.5V14A0,0,0,0,1,26,14Z"/><rect class="cls-2" x="1" y="29" width="30" height="2"/><rect class="cls-4" x="6" y="18" width="8" height="13"/><rect class="cls-4" x="17" y="18" width="9" height="9"/></g></svg>