<svg xmlns="http://www.w3.org/2000/svg" viewBox="0 0 48 48"><title>Surgery Bed</title><g id="Surgery_Bed" data-name="Surgery Bed"><path d="M47,22V21a3,3,0,0,0-3-3H4a3,3,0,0,0-3,3v1a1,1,0,0,0-1,1c0,6-.33,7,1,7H12v2a4,4,0,0,0,3.75,4L28,40.69V42H12c-4.64,0-6.28,6-4,6H40c2.28,0,.65-6-4-6V40a4,4,0,0,0-3.75-4L20,31.31V30H47a1,1,0,0,0,1-1C48,23,48.33,22,47,22Zm-2-1v1H21V20H44A1,1,0,0,1,45,21ZM3,21a1,1,0,0,1,1-1H19v2H3ZM19.75,33.36,29.33,37a4.09,4.09,0,0,0-1.08,1.6L18.67,35A4.09,4.09,0,0,0,19.75,33.36ZM38.83,46H9.17A3,3,0,0,1,12,44H36A3,3,0,0,1,38.83,46ZM34,40v2H30V40A2,2,0,0,1,34,40ZM18,32a2,2,0,0,1-4,0V30h4Zm28-4H2V24H46Z"/><path d="M32,39a1,1,0,0,0,0,2A1,1,0,0,0,32,39Z"/><path d="M16,33a1,1,0,0,0,0-2A1,1,0,0,0,16,33Z"/><path d="M15,8H33c2.28,0,.65-6-4-6H28V1a1,1,0,0,0-2,0V2H22V1a1,1,0,0,0-2,0V2H19C14.36,2,12.72,8,15,8Zm4-4H29a3,3,0,0,1,2.83,2H16.17A3,3,0,0,1,19,4Z"/><path d="M23,10v2a1,1,0,0,0,2,0V10A1,1,0,0,0,23,10Z"/><path d="M19.29,9.29l-2,2a1,1,0,0,0,1.42,1.42l2-2A1,1,0,0,0,19.29,9.29Z"/><path d="M27.29,10.71l2,2a1,1,0,0,0,1.42-1.42l-2-2A1,1,0,0,0,27.29,10.71Z"/></g></svg>